<svg width="32" height="33" viewBox="0 0 32 33" fill="none" xmlns="http://www.w3.org/2000/svg">
<path fill-rule="evenodd" clip-rule="evenodd" d="M16 12.5391C13.7909 12.5391 12 14.3299 12 16.5391C12 18.7482 13.7909 20.5391 16 20.5391C18.2091 20.5391 20 18.7482 20 16.5391C20 14.3299 18.2091 12.5391 16 12.5391ZM10 16.5391C10 13.2254 12.6863 10.5391 16 10.5391C19.3137 10.5391 22 13.2254 22 16.5391C22 19.8528 19.3137 22.5391 16 22.5391C12.6863 22.5391 10 19.8528 10 16.5391Z" fill="#858584"/>
<path fill-rule="evenodd" clip-rule="evenodd" d="M10.5 6.03906C7.73858 6.03906 5.5 8.27764 5.5 11.0391V22.0391C5.5 24.8005 7.73858 27.0391 10.5 27.0391H21.5C24.2614 27.0391 26.5 24.8005 26.5 22.0391V11.0391C26.5 8.27764 24.2614 6.03906 21.5 6.03906H10.5ZM3.5 11.0391C3.5 7.17307 6.63401 4.03906 10.5 4.03906H21.5C25.366 4.03906 28.5 7.17307 28.5 11.0391V22.0391C28.5 25.9051 25.366 29.0391 21.5 29.0391H10.5C6.63401 29.0391 3.5 25.9051 3.5 22.0391V11.0391Z" fill="#858584"/>
<path d="M22.5 11.5391C23.3284 11.5391 24 10.8675 24 10.0391C24 9.21064 23.3284 8.53906 22.5 8.53906C21.6716 8.53906 21 9.21064 21 10.0391C21 10.8675 21.6716 11.5391 22.5 11.5391Z" fill="#858584"/>
</svg>
