<svg width="32" height="33" viewBox="0 0 32 33" fill="none" xmlns="http://www.w3.org/2000/svg">
<path fill-rule="evenodd" clip-rule="evenodd" d="M13.5281 11.6574C13.8533 11.4834 14.2478 11.5024 14.5547 11.707L20.5547 15.707C20.8329 15.8925 21 16.2047 21 16.5391C21 16.8734 20.8329 17.1856 20.5547 17.3711L14.5547 21.3711C14.2478 21.5757 13.8533 21.5948 13.5281 21.4207C13.203 21.2467 13 20.9079 13 20.5391V12.5391C13 12.1703 13.203 11.8314 13.5281 11.6574ZM15 14.4076V18.6705L18.1972 16.5391L15 14.4076Z" fill="#858584"/>
<path fill-rule="evenodd" clip-rule="evenodd" d="M15.9985 5.58891L15.9816 5.58887L15.9188 5.5889C15.8643 5.58902 15.785 5.58941 15.6831 5.59049C15.4794 5.59266 15.1856 5.59756 14.8206 5.60852C14.0912 5.63041 13.0746 5.67655 11.9237 5.77372C9.64733 5.96591 6.74928 6.36477 4.51808 7.21729L4.50338 7.22304C4.06511 7.39847 3.6742 7.67445 3.36218 8.02872C3.05016 8.38299 2.82577 8.80563 2.70711 9.26256L2.70614 9.26633C2.39473 10.4849 2 12.7446 2 16.5389C2 20.3333 2.39473 22.593 2.70614 23.8115L2.70711 23.8153C2.82577 24.2722 3.05016 24.6949 3.36218 25.0491C3.6742 25.4034 4.06511 25.6794 4.50338 25.8548L4.51808 25.8606C6.74928 26.7131 9.64733 27.1119 11.9237 27.3041C13.0746 27.4013 14.0912 27.4474 14.8206 27.4693C15.1856 27.4803 15.4794 27.4852 15.6831 27.4874C15.785 27.4884 15.8643 27.4888 15.9188 27.489L15.9816 27.489L15.9985 27.4889H16.0015L16.0184 27.489L16.0812 27.489C16.1357 27.4888 16.215 27.4884 16.3169 27.4874C16.5206 27.4852 16.8144 27.4803 17.1794 27.4693C17.9088 27.4474 18.9254 27.4013 20.0763 27.3041C22.3527 27.1119 25.2507 26.7131 27.4819 25.8606L27.4966 25.8548C27.9349 25.6794 28.3258 25.4034 28.6378 25.0491C28.9498 24.6949 29.1742 24.2722 29.2929 23.8153L29.2939 23.8115C29.6053 22.593 30 20.3333 30 16.5389C30 12.7446 29.6053 10.4849 29.2939 9.26632L29.2929 9.26256C29.1742 8.80563 28.9498 8.38299 28.6378 8.02872C28.3258 7.67445 27.9349 7.39847 27.4966 7.22304L27.4819 7.21729C25.2507 6.36477 22.3527 5.96591 20.0763 5.77372C18.9254 5.67655 17.9088 5.63041 17.1794 5.60852C16.8144 5.59756 16.5206 5.59266 16.3169 5.59049C16.215 5.58941 16.1357 5.58902 16.0812 5.5889L16.0184 5.58887L16.0015 5.58891H15.9985ZM15.9947 25.4889L16.0054 25.4889L16.0086 25.489L16.0217 25.489L16.0767 25.489C16.1259 25.4888 16.1996 25.4885 16.2957 25.4875C16.4877 25.4854 16.7686 25.4808 17.1194 25.4702C17.8216 25.4492 18.8011 25.4047 19.9081 25.3112C22.1441 25.1224 24.8041 24.7409 26.7596 23.9955C26.9044 23.9365 27.0336 23.8446 27.1369 23.7272C27.2414 23.6086 27.3167 23.4671 27.3567 23.3141C27.6203 22.2819 28 20.192 28 16.5389C28 12.8859 27.6203 10.7959 27.3567 9.7637C27.3167 9.61074 27.2414 9.46926 27.1369 9.3506C27.0336 9.23321 26.9044 9.1414 26.7596 9.08233C24.8041 8.33697 22.1441 7.95542 19.9081 7.76663C18.8011 7.67317 17.8216 7.62869 17.1194 7.60761C16.7686 7.59709 16.4877 7.59242 16.2957 7.59038C16.1996 7.58936 16.1259 7.589 16.0767 7.58889L16.0217 7.58886L16.0086 7.5889L16.0058 7.58891L15.9946 7.58897L15.9914 7.5889L15.9783 7.58886L15.9233 7.58889C15.8741 7.589 15.8004 7.58936 15.7043 7.59038C15.5123 7.59242 15.2314 7.59709 14.8806 7.60761C14.1784 7.62869 13.1989 7.67317 12.0919 7.76663C9.8559 7.95542 7.1959 8.33697 5.24039 9.08233C5.09561 9.1414 4.96645 9.23321 4.86306 9.3506C4.75855 9.46926 4.6833 9.61074 4.64331 9.7637C4.37974 10.7959 4 12.8859 4 16.5389C4 20.192 4.37973 22.2819 4.6433 23.3141C4.68329 23.4671 4.75855 23.6086 4.86306 23.7272C4.96645 23.8446 5.09561 23.9364 5.24038 23.9955C7.1959 24.7409 9.8559 25.1224 12.0919 25.3112C13.1989 25.4047 14.1784 25.4492 14.8806 25.4702C15.2314 25.4808 15.5123 25.4854 15.7043 25.4875C15.8004 25.4885 15.8741 25.4888 15.9233 25.489L15.9783 25.489L15.9914 25.489L15.9947 25.4889Z" fill="#858584"/>
</svg>
