<svg width="32" height="33" viewBox="0 0 32 33" fill="none" xmlns="http://www.w3.org/2000/svg">
<path d="M12 20.0391C12.8284 20.0391 13.5 19.3675 13.5 18.5391C13.5 17.7106 12.8284 17.0391 12 17.0391C11.1716 17.0391 10.5 17.7106 10.5 18.5391C10.5 19.3675 11.1716 20.0391 12 20.0391Z" fill="#858584"/>
<path d="M20 20.0391C20.8284 20.0391 21.5 19.3675 21.5 18.5391C21.5 17.7106 20.8284 17.0391 20 17.0391C19.1716 17.0391 18.5 17.7106 18.5 18.5391C18.5 19.3675 19.1716 20.0391 20 20.0391Z" fill="#858584"/>
<path fill-rule="evenodd" clip-rule="evenodd" d="M15.9897 10.5387C13.8219 10.5226 11.6649 10.8446 9.59621 11.4929C9.0692 11.6581 8.50808 11.3648 8.34291 10.8378C8.17774 10.3107 8.47107 9.74962 8.99808 9.58445C11.2627 8.8747 13.624 8.52188 15.9971 8.53866C18.3703 8.52188 20.7316 8.8747 22.9962 9.58445C23.5232 9.74962 23.8165 10.3107 23.6514 10.8378C23.4862 11.3648 22.9251 11.6581 22.3981 11.4929C20.3294 10.8446 18.1724 10.5226 16.0045 10.5387H15.9897Z" fill="#858584"/>
<path fill-rule="evenodd" clip-rule="evenodd" d="M8.34291 22.2398C8.50808 21.7128 9.0692 21.4194 9.59621 21.5846C11.6649 22.2329 13.8219 22.5549 15.9897 22.5389H16.0045C18.1724 22.5549 20.3294 22.2329 22.3981 21.5846C22.9251 21.4194 23.4862 21.7128 23.6514 22.2398C23.8165 22.7668 23.5232 23.3279 22.9962 23.4931C20.7316 24.2028 18.3703 24.5556 15.9971 24.5389C13.624 24.5556 11.2627 24.2028 8.99808 23.4931C8.47107 23.3279 8.17774 22.7668 8.34291 22.2398Z" fill="#858584"/>
<path fill-rule="evenodd" clip-rule="evenodd" d="M20.2234 5.35028C20.6538 5.10758 21.1585 5.03174 21.6412 5.13718C22.9588 5.42272 24.2487 5.8233 25.4963 6.3343C25.7771 6.44258 26.0293 6.61402 26.2333 6.83545C26.4396 7.05924 26.5909 7.32792 26.6755 7.62021L30.9113 21.7646C31.0217 22.1331 31.0243 22.5255 30.9186 22.8954C30.8129 23.2653 30.6034 23.5971 30.315 23.8516L30.3098 23.8562C28.2424 25.6551 25.441 27.0168 22.259 27.7968C21.8171 27.9094 21.3496 27.8656 20.9362 27.6726C20.5244 27.4805 20.1916 27.1523 19.9937 26.7435L18.4855 23.752C18.2368 23.2588 18.4351 22.6575 18.9282 22.4088C19.4214 22.1602 20.0227 22.3584 20.2713 22.8516L21.7838 25.8516L21.7849 25.8538C24.7228 25.1333 27.217 23.8962 28.997 22.3474L29.6534 23.1018L28.9918 22.3519C28.9936 22.3503 28.9949 22.3482 28.9956 22.346C28.9962 22.3437 28.9962 22.3412 28.9955 22.3389L24.7594 8.19372C24.7559 8.19231 24.7524 8.19088 24.7488 8.18943C23.6059 7.72055 22.424 7.35318 21.2166 7.09159L21.2145 7.09111C21.2115 7.09046 21.2083 7.09093 21.2056 7.09244C21.2032 7.09379 21.2014 7.09591 21.2003 7.09844L20.2154 10.0781C20.042 10.6025 19.4764 10.8871 18.9521 10.7137C18.4277 10.5404 18.1431 9.9748 18.3164 9.45042L19.3068 6.45423C19.4663 5.98613 19.7926 5.59316 20.2234 5.35028Z" fill="#858584"/>
<path fill-rule="evenodd" clip-rule="evenodd" d="M10.7982 7.09244C10.7955 7.09093 10.7924 7.09046 10.7894 7.09111L10.7872 7.09159C9.57988 7.35318 8.39792 7.72055 7.25502 8.18943C7.25149 8.19088 7.24795 8.19231 7.24441 8.19371L3.00842 22.3386C3.00774 22.3409 3.00764 22.3437 3.00829 22.346C3.00888 22.348 3.01 22.3499 3.01152 22.3514C4.79121 23.8984 7.2836 25.1339 10.2189 25.8538L10.22 25.8516L11.7325 22.8516C11.9812 22.3584 12.5825 22.1602 13.0756 22.4088C13.5688 22.6575 13.767 23.2588 13.5184 23.752L12.0101 26.7435C11.8123 27.1523 11.4795 27.4805 11.0677 27.6726C10.6542 27.8656 10.1868 27.9094 9.74481 27.7968C6.56287 27.0168 3.76151 25.6551 1.69404 23.8562L1.68886 23.8517C1.40039 23.5972 1.19093 23.2653 1.08525 22.8954C0.979591 22.5256 0.982107 22.1333 1.09249 21.7649C1.09246 21.765 1.09252 21.7648 1.09249 21.7649L5.32839 7.62023C5.41291 7.32793 5.56426 7.05925 5.77051 6.83544C5.97457 6.61402 6.22679 6.44258 6.5076 6.3343C7.75546 5.82316 9.04577 5.4225 10.3637 5.13694C10.8461 5.03185 11.3504 5.10776 11.7805 5.35028C12.2113 5.59316 12.5375 5.98614 12.697 6.45424L12.7 6.46291L13.6874 9.45042C13.8608 9.9748 13.5762 10.5404 13.0518 10.7137C12.5274 10.8871 11.9618 10.6025 11.7885 10.0781L10.8036 7.09843C10.8025 7.0959 10.8006 7.09379 10.7982 7.09244Z" fill="#858584"/>
<path d="M12 20.0391C12.8284 20.0391 13.5 19.3675 13.5 18.5391C13.5 17.7106 12.8284 17.0391 12 17.0391C11.1716 17.0391 10.5 17.7106 10.5 18.5391C10.5 19.3675 11.1716 20.0391 12 20.0391Z" fill="#858584"/>
<path d="M20 20.0391C20.8284 20.0391 21.5 19.3675 21.5 18.5391C21.5 17.7106 20.8284 17.0391 20 17.0391C19.1716 17.0391 18.5 17.7106 18.5 18.5391C18.5 19.3675 19.1716 20.0391 20 20.0391Z" fill="#858584"/>
<path fill-rule="evenodd" clip-rule="evenodd" d="M15.9897 10.5387C13.8219 10.5226 11.6649 10.8446 9.59621 11.4929C9.0692 11.6581 8.50808 11.3648 8.34291 10.8378C8.17774 10.3107 8.47107 9.74962 8.99808 9.58445C11.2627 8.8747 13.624 8.52188 15.9971 8.53866C18.3703 8.52188 20.7316 8.8747 22.9962 9.58445C23.5232 9.74962 23.8165 10.3107 23.6514 10.8378C23.4862 11.3648 22.9251 11.6581 22.3981 11.4929C20.3294 10.8446 18.1724 10.5226 16.0045 10.5387H15.9897Z" fill="#858584"/>
<path fill-rule="evenodd" clip-rule="evenodd" d="M8.34291 22.2398C8.50808 21.7128 9.0692 21.4194 9.59621 21.5846C11.6649 22.2329 13.8219 22.5549 15.9897 22.5389H16.0045C18.1724 22.5549 20.3294 22.2329 22.3981 21.5846C22.9251 21.4194 23.4862 21.7128 23.6514 22.2398C23.8165 22.7668 23.5232 23.3279 22.9962 23.4931C20.7316 24.2028 18.3703 24.5556 15.9971 24.5389C13.624 24.5556 11.2627 24.2028 8.99808 23.4931C8.47107 23.3279 8.17774 22.7668 8.34291 22.2398Z" fill="#858584"/>
<path fill-rule="evenodd" clip-rule="evenodd" d="M20.2234 5.35028C20.6538 5.10758 21.1585 5.03174 21.6412 5.13718C22.9588 5.42272 24.2487 5.8233 25.4963 6.3343C25.7771 6.44258 26.0293 6.61402 26.2333 6.83545C26.4396 7.05924 26.5909 7.32792 26.6755 7.62021L30.9113 21.7646C31.0217 22.1331 31.0243 22.5255 30.9186 22.8954C30.8129 23.2653 30.6034 23.5971 30.315 23.8516L30.3098 23.8562C28.2424 25.6551 25.441 27.0168 22.259 27.7968C21.8171 27.9094 21.3496 27.8656 20.9362 27.6726C20.5244 27.4805 20.1916 27.1523 19.9937 26.7435L18.4855 23.752C18.2368 23.2588 18.4351 22.6575 18.9282 22.4088C19.4214 22.1602 20.0227 22.3584 20.2713 22.8516L21.7838 25.8516L21.7849 25.8538C24.7228 25.1333 27.217 23.8962 28.997 22.3474L29.6534 23.1018L28.9918 22.3519C28.9936 22.3503 28.9949 22.3482 28.9956 22.346C28.9962 22.3437 28.9962 22.3412 28.9955 22.3389L24.7594 8.19372C24.7559 8.19231 24.7524 8.19088 24.7488 8.18943C23.6059 7.72055 22.424 7.35318 21.2166 7.09159L21.2145 7.09111C21.2115 7.09046 21.2083 7.09093 21.2056 7.09244C21.2032 7.09379 21.2014 7.09591 21.2003 7.09844L20.2154 10.0781C20.042 10.6025 19.4764 10.8871 18.9521 10.7137C18.4277 10.5404 18.1431 9.9748 18.3164 9.45042L19.3068 6.45423C19.4663 5.98613 19.7926 5.59316 20.2234 5.35028Z" fill="#858584"/>
<path fill-rule="evenodd" clip-rule="evenodd" d="M10.7982 7.09244C10.7955 7.09093 10.7924 7.09046 10.7894 7.09111L10.7872 7.09159C9.57988 7.35318 8.39792 7.72055 7.25502 8.18943C7.25149 8.19088 7.24795 8.19231 7.24441 8.19371L3.00842 22.3386C3.00774 22.3409 3.00764 22.3437 3.00829 22.346C3.00888 22.348 3.01 22.3499 3.01152 22.3514C4.79121 23.8984 7.2836 25.1339 10.2189 25.8538L10.22 25.8516L11.7325 22.8516C11.9812 22.3584 12.5825 22.1602 13.0756 22.4088C13.5688 22.6575 13.767 23.2588 13.5184 23.752L12.0101 26.7435C11.8123 27.1523 11.4795 27.4805 11.0677 27.6726C10.6542 27.8656 10.1868 27.9094 9.74481 27.7968C6.56287 27.0168 3.76151 25.6551 1.69404 23.8562L1.68886 23.8517C1.40039 23.5972 1.19093 23.2653 1.08525 22.8954C0.979591 22.5256 0.982107 22.1333 1.09249 21.7649C1.09246 21.765 1.09252 21.7648 1.09249 21.7649L5.32839 7.62023C5.41291 7.32793 5.56426 7.05925 5.77051 6.83544C5.97457 6.61402 6.22679 6.44258 6.5076 6.3343C7.75546 5.82316 9.04577 5.4225 10.3637 5.13694C10.8461 5.03185 11.3504 5.10776 11.7805 5.35028C12.2113 5.59316 12.5375 5.98614 12.697 6.45424L12.7 6.46291L13.6874 9.45042C13.8608 9.9748 13.5762 10.5404 13.0518 10.7137C12.5274 10.8871 11.9618 10.6025 11.7885 10.0781L10.8036 7.09843C10.8025 7.0959 10.8006 7.09379 10.7982 7.09244Z" fill="#858584"/>
</svg>
