<svg width="36" height="31" viewBox="0 0 36 31" fill="none" xmlns="http://www.w3.org/2000/svg">
<path d="M11.5248 5.99023V7.79102H4.10882L1.95745 17.4277C0.891946 23.2435 5.35874 28.6045 11.2729 28.6045H17.7778V30.4043H11.2729C4.23076 30.4043 -1.08609 24.0174 0.189876 17.0918L1.07464 17.2549L0.195736 17.0596L2.50921 6.69434L2.55609 6.5459C2.69332 6.21456 3.01851 5.99027 3.38714 5.99023H11.5248Z" fill="white"/>
<path d="M23.1304 5.99023V7.79102H31.4459L33.5972 17.4277C34.6627 23.2435 30.1959 28.6045 24.2818 28.6045H17.7769C17.28 28.6045 16.8767 29.007 16.8765 29.5039C16.8765 30.0009 17.2799 30.4042 17.7769 30.4043H24.2818C31.3239 30.4043 36.6408 24.0174 35.3648 17.0918L34.48 17.2549L35.359 17.0596L33.0455 6.69434L32.9986 6.5459C32.8614 6.21456 32.5362 5.99028 32.1675 5.99023H23.1304Z" fill="white"/>
<path d="M6.02206 18.2719C6.38957 18.0026 6.90814 18.0499 7.2203 18.395L11.6851 23.3334C12.0066 23.6891 11.9928 24.2337 11.6539 24.5727L7.18905 29.0366C6.83754 29.3878 6.26797 29.388 5.91659 29.0366C5.56527 28.6852 5.56539 28.1156 5.91659 27.7641L9.77596 23.9047L6.48788 20.268L2.47127 23.8862C2.10194 24.2188 1.53244 24.1891 1.19979 23.8198C0.867402 23.4505 0.897234 22.8819 1.2662 22.5493L5.95077 18.3295L6.02206 18.2719Z" fill="white"/>
<path d="M29.5326 18.2719C29.1651 18.0026 28.6465 18.0499 28.3344 18.395L23.8695 23.3334C23.5481 23.6891 23.5619 24.2337 23.9008 24.5727L28.3656 29.0366C28.7171 29.3878 29.2867 29.388 29.6381 29.0366C29.9894 28.6852 29.9893 28.1156 29.6381 27.7641L25.7787 23.9047L29.0668 20.268L33.0834 23.8862C33.4527 24.2188 34.0222 24.1891 34.3549 23.8198C34.6873 23.4505 34.6575 22.8819 34.2885 22.5493L29.6039 18.3295L29.5326 18.2719Z" fill="white"/>
<path d="M15.835 15.541C16.3319 15.5411 16.7344 15.9444 16.7344 16.4414V20.4922H14.9346V17.3418H9.78516V21.5693H7.98438V16.4414C7.98438 15.9443 8.38771 15.541 8.88477 15.541H15.835Z" fill="white"/>
<path d="M19.7197 15.541C19.2228 15.5411 18.8203 15.9444 18.8203 16.4414V20.4922H20.6201V17.3418H25.7695V21.5693H27.5703V16.4414C27.5703 15.9443 27.167 15.541 26.6699 15.541H19.7197Z" fill="white"/>
<path d="M21.4053 19.5771C21.9021 19.5774 22.3047 19.9806 22.3047 20.4775V29.5039C22.3047 30.0008 21.9021 30.4041 21.4053 30.4043H14.1426C13.6455 30.4043 13.2422 30.001 13.2422 29.5039V20.4775C13.2422 19.9805 13.6455 19.5771 14.1426 19.5771H21.4053ZM15.043 28.6045H20.5049V21.3779H15.043V28.6045Z" fill="white"/>
<path d="M21.0459 0.134766C21.543 0.134766 21.9463 0.5381 21.9463 1.03516V11.5117C21.9462 12.0087 21.5429 12.4121 21.0459 12.4121H13.7832C13.2862 12.4121 12.8829 12.0087 12.8828 11.5117V1.03516C12.8828 0.5381 13.2861 0.134766 13.7832 0.134766H21.0459ZM14.6836 10.6113H20.1465V1.93555H14.6836V10.6113Z" fill="white"/>
</svg>
