<svg width="85" height="33" viewBox="0 0 85 33" fill="none" xmlns="http://www.w3.org/2000/svg">
<g filter="url(#filter0_d_362_1420)">
<path d="M69.7891 7.35645C70.8926 7.35648 71.8316 7.54265 72.5684 7.95703H72.5674C73.101 8.24903 73.5466 8.65425 73.9102 9.16016V7.77344H78.668V18.5908C78.668 18.8241 78.721 18.9063 78.7402 18.9277C78.7505 18.9391 78.7959 18.9853 78.9727 18.9854H80.0391V23.5635H76.9746C76.1936 23.5634 75.5113 23.3301 74.9688 22.8369L74.96 22.8291C74.634 22.5185 74.4126 22.1502 74.291 21.7354C73.8882 22.4406 73.3677 22.9889 72.7148 23.3516L72.7061 23.3564C71.9066 23.7784 70.9887 23.9814 69.9678 23.9814C69.0085 23.9814 68.0965 23.7997 67.2373 23.4346L67.2334 23.4326C66.3903 23.0651 65.6474 22.525 65.0059 21.8193C64.3627 21.1118 63.8547 20.2613 63.4775 19.2764L63.4746 19.2676C63.1135 18.2691 62.9375 17.1466 62.9375 15.9072V15.4307C62.9375 14.2101 63.1137 13.0973 63.4746 12.0996C63.8309 11.1146 64.3174 10.2627 64.9404 9.55371C65.5616 8.84695 66.285 8.30537 67.1094 7.93652C67.9505 7.54923 68.8458 7.35645 69.7891 7.35645ZM70.8027 11.9346C69.8345 11.9346 69.1019 12.2543 68.5518 12.8711L68.5469 12.876C67.9978 13.4751 67.6943 14.3257 67.6943 15.4902V15.8477C67.6943 17.0082 67.996 17.8704 68.5469 18.4912C69.0957 19.0899 69.83 19.4033 70.8027 19.4033C71.7754 19.4033 72.5088 19.0899 73.0576 18.4912C73.6087 17.8704 73.9102 17.0084 73.9102 15.8477V15.4902C73.9102 14.3255 73.6068 13.4751 73.0576 12.876L73.0537 12.8711C72.5036 12.2543 71.7709 11.9346 70.8027 11.9346Z" fill="white" stroke="black"/>
<path d="M64.5869 23.5635H59.5391L59.3896 23.3584L55.3428 17.8301V23.5635H50.5859V1.69043H55.3428V13.1455L59.0898 7.97949L59.2393 7.77344H64.1094V8.61035L64.0186 8.74023L59.3389 15.3779V15.5928L64.4893 22.5879L64.5869 22.7197V23.5635Z" fill="white" stroke="black"/>
<path d="M49.9072 23.5635H44.8594L44.71 23.3584L40.6631 17.8301V23.5635H35.9062V1.69043H40.6631V13.1455L44.4102 7.97949L44.5596 7.77344H49.4297V8.61035L49.3389 8.74023L44.6592 15.3779V15.5928L49.8096 22.5879L49.9072 22.7197V23.5635Z" fill="white" stroke="black"/>
<path d="M30.0713 7.77344V18.9854H34.3652V23.5635H20.3047V18.9854H25.3145V12.3516H20.6621V7.77344H30.0713ZM27.6631 0.557617C28.102 0.557647 28.5218 0.648941 28.918 0.830078L29.0723 0.894531C29.4277 1.05311 29.7435 1.26787 30.0146 1.53906H30.0137C30.3235 1.82921 30.5572 2.18491 30.7188 2.59668C30.9042 2.99926 30.9951 3.43266 30.9951 3.89062C30.9951 4.35211 30.9027 4.79411 30.7188 5.21289C30.5545 5.61177 30.3196 5.96643 30.0146 6.27148L30.0068 6.27832L30 6.28516C29.6971 6.56472 29.3416 6.79295 28.9395 6.97168L28.9268 6.97656C28.5265 7.14139 28.1038 7.22263 27.6631 7.22266C27.206 7.22266 26.7726 7.14269 26.3691 6.97656L26.3574 6.97168L26.3467 6.9668C25.9654 6.78739 25.6243 6.56039 25.3262 6.28516L25.3184 6.27832L25.3115 6.27148C25.0114 5.97138 24.77 5.62527 24.5869 5.23633L24.5791 5.2207L24.5732 5.20508C24.4109 4.78751 24.3301 4.34785 24.3301 3.89062C24.3301 3.43356 24.4101 3.0001 24.5762 2.59668L24.582 2.58398L24.6533 2.43164C24.8246 2.08906 25.0436 1.78982 25.3115 1.53906L25.4277 1.42773C25.7053 1.17591 26.02 0.977766 26.3691 0.833984C26.7717 0.648586 27.2052 0.557617 27.6631 0.557617Z" fill="white" stroke="black"/>
<path d="M20.6689 1.69043V6.44727H15.123V23.5635H10.1865V6.44727H4.64062V1.69043H20.6689Z" fill="white" stroke="black"/>
</g>
<defs>
<filter id="filter0_d_362_1420" x="0.140625" y="0.0576172" width="84.3984" height="32.4238" filterUnits="userSpaceOnUse" color-interpolation-filters="sRGB">
<feFlood flood-opacity="0" result="BackgroundImageFix"/>
<feColorMatrix in="SourceAlpha" type="matrix" values="0 0 0 0 0 0 0 0 0 0 0 0 0 0 0 0 0 0 127 0" result="hardAlpha"/>
<feOffset dy="4"/>
<feGaussianBlur stdDeviation="2"/>
<feComposite in2="hardAlpha" operator="out"/>
<feColorMatrix type="matrix" values="0 0 0 0 0 0 0 0 0 0 0 0 0 0 0 0 0 0 0.25 0"/>
<feBlend mode="normal" in2="BackgroundImageFix" result="effect1_dropShadow_362_1420"/>
<feBlend mode="normal" in="SourceGraphic" in2="effect1_dropShadow_362_1420" result="shape"/>
</filter>
</defs>
</svg>
