<svg width="32" height="33" viewBox="0 0 32 33" fill="none" xmlns="http://www.w3.org/2000/svg">
<path d="M16.0007 11.5395C16.0007 8.78952 18.3132 6.50202 21.0632 6.53952C22.0262 6.55064 22.9656 6.83967 23.7683 7.37186C24.571 7.90406 25.203 8.65677 25.5882 9.53952H30.0007L25.9632 13.577C25.7026 17.6327 23.9073 21.437 20.9422 24.2163C17.9771 26.9957 14.0648 28.5415 10.0007 28.5395C6.00068 28.5395 5.00068 27.0395 5.00068 27.0395C5.00068 27.0395 9.00068 25.5395 11.0007 22.5395C11.0007 22.5395 3.00068 18.5395 5.00068 7.53952C5.00068 7.53952 10.0007 12.5395 16.0007 13.5395V11.5395Z" stroke="#858584" stroke-width="2" stroke-linecap="round" stroke-linejoin="round"/>
</svg>
